<svg width="952" height="808" viewBox="0 0 952 808" fill="none" xmlns="http://www.w3.org/2000/svg">
<ellipse cx="476" cy="444" rx="476" ry="364" fill="#D9564A"/>
<path d="M537.085 248.389C511.12 270.592 468.877 270.593 442.914 248.39C436.072 242.537 424.976 242.537 418.133 248.39C411.289 254.242 411.289 263.73 418.133 269.583C437.949 286.53 463.969 295 490 295C516.023 295 542.056 286.526 561.867 269.583C568.711 263.731 568.711 254.242 561.867 248.39C555.023 242.536 543.927 242.537 537.085 248.389Z" fill="#333333"/>
<path d="M534.205 52.8365C587.134 57.1955 625 68.831 625 82.5C625 96.2265 586.815 107.902 533.536 112.218C526.746 141.456 510.706 162 492 162C473.421 162 457.472 141.733 450.603 112.812C393.117 109.07 351 96.916 351 82.5C351 68.1412 392.784 56.0263 449.921 52.2328C456.367 21.6991 472.776 0 492 0C511.351 0 527.849 21.9855 534.205 52.8365Z" fill="#858C51"/>
<circle cx="370" cy="190" r="26" fill="#333333"/>
<circle cx="605" cy="190" r="26" fill="#333333"/>
</svg>
